<?xml version="1.0" encoding="UTF-8" standalone="no"?>
<!DOCTYPE svg PUBLIC "-//W3C//DTD SVG 1.1//EN"
 "http://www.w3.org/Graphics/SVG/1.1/DTD/svg11.dtd">
<!-- Generated by graphviz version 2.30.1 (20150306.0020)
 -->
<!-- Title: snakemake_dag Pages: 1 -->
<svg width="1046pt" height="476pt"
 viewBox="0.00 0.00 1045.63 476.00" xmlns="http://www.w3.org/2000/svg" xmlns:xlink="http://www.w3.org/1999/xlink">
<g id="graph0" class="graph" transform="scale(1 1) rotate(0) translate(4 472)">
<title>snakemake_dag</title>
<polygon fill="white" stroke="white" points="-4,5 -4,-472 1042.63,-472 1042.63,5 -4,5"/>
<!-- 0 -->
<g id="node1" class="node"><title>0</title>
<path fill="none" stroke="#68d856" stroke-width="2" d="M415.49,-36C415.49,-36 385.49,-36 385.49,-36 379.49,-36 373.49,-30 373.49,-24 373.49,-24 373.49,-12 373.49,-12 373.49,-6 379.49,-0 385.49,-0 385.49,-0 415.49,-0 415.49,-0 421.49,-0 427.49,-6 427.49,-12 427.49,-12 427.49,-24 427.49,-24 427.49,-30 421.49,-36 415.49,-36"/>
<text text-anchor="middle" x="400.49" y="-15.5" font-family="sans" font-size="10.00">all</text>
</g>
<!-- 1 -->
<g id="node2" class="node"><title>1</title>
<path fill="none" stroke="#c6d856" stroke-width="2" d="M289.49,-108C289.49,-108 251.49,-108 251.49,-108 245.49,-108 239.49,-102 239.49,-96 239.49,-96 239.49,-84 239.49,-84 239.49,-78 245.49,-72 251.49,-72 251.49,-72 289.49,-72 289.49,-72 295.49,-72 301.49,-78 301.49,-84 301.49,-84 301.49,-96 301.49,-96 301.49,-102 295.49,-108 289.49,-108"/>
<text text-anchor="middle" x="270.49" y="-87.5" font-family="sans" font-size="10.00">summary</text>
</g>
<!-- 1&#45;&gt;0 -->
<g id="edge1" class="edge"><title>1&#45;&gt;0</title>
<path fill="none" stroke="grey" stroke-width="2" d="M301.628,-72.2333C320.434,-62.1073 344.486,-49.1563 364.157,-38.5641"/>
<polygon fill="grey" stroke="grey" points="365.99,-41.5523 373.135,-33.7296 362.671,-35.389 365.99,-41.5523"/>
</g>
<!-- 2 -->
<g id="node3" class="node"><title>2</title>
<path fill="none" stroke="#d88d56" stroke-width="2" d="M419.49,-108C419.49,-108 381.49,-108 381.49,-108 375.49,-108 369.49,-102 369.49,-96 369.49,-96 369.49,-84 369.49,-84 369.49,-78 375.49,-72 381.49,-72 381.49,-72 419.49,-72 419.49,-72 425.49,-72 431.49,-78 431.49,-84 431.49,-84 431.49,-96 431.49,-96 431.49,-102 425.49,-108 419.49,-108"/>
<text text-anchor="middle" x="400.49" y="-87.5" font-family="sans" font-size="10.00">plot_time</text>
</g>
<!-- 2&#45;&gt;0 -->
<g id="edge2" class="edge"><title>2&#45;&gt;0</title>
<path fill="none" stroke="grey" stroke-width="2" d="M400.49,-71.6966C400.49,-63.9827 400.49,-54.7125 400.49,-46.1124"/>
<polygon fill="grey" stroke="grey" points="403.99,-46.1043 400.49,-36.1043 396.99,-46.1044 403.99,-46.1043"/>
</g>
<!-- 3 -->
<g id="node4" class="node"><title>3</title>
<path fill="none" stroke="#d8a456" stroke-width="2" d="M531.49,-108C531.49,-108 475.49,-108 475.49,-108 469.49,-108 463.49,-102 463.49,-96 463.49,-96 463.49,-84 463.49,-84 463.49,-78 469.49,-72 475.49,-72 475.49,-72 531.49,-72 531.49,-72 537.49,-72 543.49,-78 543.49,-84 543.49,-84 543.49,-96 543.49,-96 543.49,-102 537.49,-108 531.49,-108"/>
<text text-anchor="middle" x="503.49" y="-87.5" font-family="sans" font-size="10.00">plot_memory</text>
</g>
<!-- 3&#45;&gt;0 -->
<g id="edge3" class="edge"><title>3&#45;&gt;0</title>
<path fill="none" stroke="grey" stroke-width="2" d="M478.294,-71.8761C465.076,-62.8931 448.698,-51.7625 434.383,-42.0341"/>
<polygon fill="grey" stroke="grey" points="436.022,-38.9159 425.784,-36.1898 432.087,-44.7055 436.022,-38.9159"/>
</g>
<!-- 4 -->
<g id="node5" class="node"><title>4</title>
<path fill="none" stroke="#56d8d8" stroke-width="2" stroke-dasharray="5,2" d="M88.4901,-180C88.4901,-180 12.4901,-180 12.4901,-180 6.49015,-180 0.490147,-174 0.490147,-168 0.490147,-168 0.490147,-156 0.490147,-156 0.490147,-150 6.49015,-144 12.4901,-144 12.4901,-144 88.4901,-144 88.4901,-144 94.4901,-144 100.49,-150 100.49,-156 100.49,-156 100.49,-168 100.49,-168 100.49,-174 94.4901,-180 88.4901,-180"/>
<text text-anchor="middle" x="50.4901" y="-159.5" font-family="sans" font-size="10.00">cellranger_seurat</text>
</g>
<!-- 4&#45;&gt;1 -->
<g id="edge4" class="edge"><title>4&#45;&gt;1</title>
<path fill="none" stroke="grey" stroke-width="2" d="M100.687,-145.028C139.636,-132.635 192.957,-115.67 229.393,-104.076"/>
<polygon fill="grey" stroke="grey" points="230.728,-107.325 239.196,-100.957 228.605,-100.654 230.728,-107.325"/>
</g>
<!-- 5 -->
<g id="node6" class="node"><title>5</title>
<path fill="none" stroke="#566bd8" stroke-width="2" stroke-dasharray="5,2" d="M667.49,-180C667.49,-180 601.49,-180 601.49,-180 595.49,-180 589.49,-174 589.49,-168 589.49,-168 589.49,-156 589.49,-156 589.49,-150 595.49,-144 601.49,-144 601.49,-144 667.49,-144 667.49,-144 673.49,-144 679.49,-150 679.49,-156 679.49,-156 679.49,-168 679.49,-168 679.49,-174 673.49,-180 667.49,-180"/>
<text text-anchor="middle" x="634.49" y="-159.5" font-family="sans" font-size="10.00">alevin_tximport</text>
</g>
<!-- 5&#45;&gt;1 -->
<g id="edge5" class="edge"><title>5&#45;&gt;1</title>
<path fill="none" stroke="grey" stroke-width="2" d="M589.248,-146.241C586.296,-145.439 583.359,-144.683 580.49,-144 484.103,-121.066 458.065,-125.196 360.49,-108 344.585,-105.197 327.135,-101.942 311.869,-99.0357"/>
<polygon fill="grey" stroke="grey" points="312.174,-95.5307 301.694,-97.0887 310.858,-102.406 312.174,-95.5307"/>
</g>
<!-- 6 -->
<g id="node7" class="node"><title>6</title>
<path fill="none" stroke="#59d856" stroke-width="2" stroke-dasharray="5,2" d="M296.74,-180C296.74,-180 244.24,-180 244.24,-180 238.24,-180 232.24,-174 232.24,-168 232.24,-168 232.24,-156 232.24,-156 232.24,-150 238.24,-144 244.24,-144 244.24,-144 296.74,-144 296.74,-144 302.74,-144 308.74,-150 308.74,-156 308.74,-156 308.74,-168 308.74,-168 308.74,-174 302.74,-180 296.74,-180"/>
<text text-anchor="middle" x="270.49" y="-159.5" font-family="sans" font-size="10.00">kb_busparse</text>
</g>
<!-- 6&#45;&gt;1 -->
<g id="edge6" class="edge"><title>6&#45;&gt;1</title>
<path fill="none" stroke="grey" stroke-width="2" d="M270.49,-143.697C270.49,-135.983 270.49,-126.712 270.49,-118.112"/>
<polygon fill="grey" stroke="grey" points="273.99,-118.104 270.49,-108.104 266.99,-118.104 273.99,-118.104"/>
</g>
<!-- 7 -->
<g id="node8" class="node"><title>7</title>
<path fill="none" stroke="#d6d856" stroke-width="2" stroke-dasharray="5,2" d="M74.7401,-252C74.7401,-252 26.2401,-252 26.2401,-252 20.2401,-252 14.2401,-246 14.2401,-240 14.2401,-240 14.2401,-228 14.2401,-228 14.2401,-222 20.2401,-216 26.2401,-216 26.2401,-216 74.7401,-216 74.7401,-216 80.7401,-216 86.7401,-222 86.7401,-228 86.7401,-228 86.7401,-240 86.7401,-240 86.7401,-246 80.7401,-252 74.7401,-252"/>
<text text-anchor="middle" x="50.4901" y="-231.5" font-family="sans" font-size="10.00">install_Rpkg</text>
</g>
<!-- 7&#45;&gt;1 -->
<g id="edge7" class="edge"><title>7&#45;&gt;1</title>
<path fill="none" stroke="grey" stroke-width="2" d="M77.0273,-215.871C116.587,-190.338 191.084,-142.253 235.196,-113.781"/>
<polygon fill="grey" stroke="grey" points="237.355,-116.553 243.859,-108.189 233.559,-110.672 237.355,-116.553"/>
</g>
<!-- 7&#45;&gt;4 -->
<g id="edge11" class="edge"><title>7&#45;&gt;4</title>
<path fill="none" stroke="grey" stroke-width="2" d="M50.4901,-215.697C50.4901,-207.983 50.4901,-198.712 50.4901,-190.112"/>
<polygon fill="grey" stroke="grey" points="53.9902,-190.104 50.4901,-180.104 46.9902,-190.104 53.9902,-190.104"/>
</g>
<!-- 7&#45;&gt;5 -->
<g id="edge15" class="edge"><title>7&#45;&gt;5</title>
<path fill="none" stroke="grey" stroke-width="2" d="M86.9978,-227.422C111.207,-223.845 143.699,-219.274 172.49,-216 350.095,-195.803 400.156,-214.827 579.283,-179.987"/>
<polygon fill="grey" stroke="grey" points="580.17,-183.379 589.302,-178.008 578.814,-176.512 580.17,-183.379"/>
</g>
<!-- 7&#45;&gt;6 -->
<g id="edge19" class="edge"><title>7&#45;&gt;6</title>
<path fill="none" stroke="grey" stroke-width="2" d="M86.9591,-220.756C91.84,-219.143 96.7837,-217.522 101.49,-216 142.232,-202.822 188.656,-188.299 222.525,-177.792"/>
<polygon fill="grey" stroke="grey" points="223.654,-181.107 232.17,-174.804 221.582,-174.42 223.654,-181.107"/>
</g>
<!-- 8 -->
<g id="node9" class="node"><title>8</title>
<path fill="none" stroke="#56c9d8" stroke-width="2" d="M432.74,-180C432.74,-180 368.24,-180 368.24,-180 362.24,-180 356.24,-174 356.24,-168 356.24,-168 356.24,-156 356.24,-156 356.24,-150 362.24,-144 368.24,-144 368.24,-144 432.74,-144 432.74,-144 438.74,-144 444.74,-150 444.74,-156 444.74,-156 444.74,-168 444.74,-168 444.74,-174 438.74,-180 432.74,-180"/>
<text text-anchor="middle" x="400.49" y="-159.5" font-family="sans" font-size="10.00">summary_time</text>
</g>
<!-- 8&#45;&gt;2 -->
<g id="edge8" class="edge"><title>8&#45;&gt;2</title>
<path fill="none" stroke="grey" stroke-width="2" d="M400.49,-143.697C400.49,-135.983 400.49,-126.712 400.49,-118.112"/>
<polygon fill="grey" stroke="grey" points="403.99,-118.104 400.49,-108.104 396.99,-118.104 403.99,-118.104"/>
</g>
<!-- 9 -->
<g id="node10" class="node"><title>9</title>
<path fill="none" stroke="#56a2d8" stroke-width="2" d="M559.49,-180C559.49,-180 475.49,-180 475.49,-180 469.49,-180 463.49,-174 463.49,-168 463.49,-168 463.49,-156 463.49,-156 463.49,-150 469.49,-144 475.49,-144 475.49,-144 559.49,-144 559.49,-144 565.49,-144 571.49,-150 571.49,-156 571.49,-156 571.49,-168 571.49,-168 571.49,-174 565.49,-180 559.49,-180"/>
<text text-anchor="middle" x="517.49" y="-159.5" font-family="sans" font-size="10.00">summary_memory</text>
</g>
<!-- 9&#45;&gt;3 -->
<g id="edge9" class="edge"><title>9&#45;&gt;3</title>
<path fill="none" stroke="grey" stroke-width="2" d="M514.029,-143.697C512.487,-135.983 510.633,-126.712 508.913,-118.112"/>
<polygon fill="grey" stroke="grey" points="512.304,-117.224 506.911,-108.104 505.44,-118.597 512.304,-117.224"/>
</g>
<!-- 10 -->
<g id="node11" class="node"><title>10</title>
<path fill="none" stroke="#56d8b1" stroke-width="2" stroke-dasharray="5,2" d="M151.49,-396C151.49,-396 111.49,-396 111.49,-396 105.49,-396 99.4901,-390 99.4901,-384 99.4901,-384 99.4901,-372 99.4901,-372 99.4901,-366 105.49,-360 111.49,-360 111.49,-360 151.49,-360 151.49,-360 157.49,-360 163.49,-366 163.49,-372 163.49,-372 163.49,-384 163.49,-384 163.49,-390 157.49,-396 151.49,-396"/>
<text text-anchor="middle" x="131.49" y="-375.5" font-family="sans" font-size="10.00">cellranger</text>
</g>
<!-- 10&#45;&gt;4 -->
<g id="edge10" class="edge"><title>10&#45;&gt;4</title>
<path fill="none" stroke="grey" stroke-width="2" d="M103.905,-359.837C72.9895,-338.791 24.5701,-299.938 4.49015,-252 -1.6914,-237.242 -1.10735,-230.989 4.49015,-216 8.36627,-205.621 15.2931,-195.927 22.6141,-187.743"/>
<polygon fill="grey" stroke="grey" points="25.2741,-190.026 29.6674,-180.385 20.2208,-185.182 25.2741,-190.026"/>
</g>
<!-- 10&#45;&gt;8 -->
<g id="edge20" class="edge"><title>10&#45;&gt;8</title>
<path fill="none" stroke="grey" stroke-width="2" d="M126.305,-359.987C117.606,-327.661 104.265,-256.946 139.49,-216 192.129,-154.814 238.399,-196.098 317.49,-180 326.797,-178.106 336.689,-176.086 346.28,-174.123"/>
<polygon fill="grey" stroke="grey" points="347.032,-177.542 356.127,-172.107 345.628,-170.684 347.032,-177.542"/>
</g>
<!-- 10&#45;&gt;9 -->
<g id="edge29" class="edge"><title>10&#45;&gt;9</title>
<path fill="none" stroke="grey" stroke-width="2" d="M133.451,-359.721C138.08,-322.192 150.944,-235.067 172.49,-216 219.636,-174.279 391.711,-192.107 453.49,-180 453.592,-179.98 453.695,-179.96 453.797,-179.94"/>
<polygon fill="grey" stroke="grey" points="454.43,-183.383 463.485,-177.883 452.976,-176.536 454.43,-183.383"/>
</g>
<!-- 25 -->
<g id="node26" class="node"><title>25</title>
<path fill="none" stroke="#56d86b" stroke-width="2" stroke-dasharray="5,2" d="M398.74,-324C398.74,-324 330.24,-324 330.24,-324 324.24,-324 318.24,-318 318.24,-312 318.24,-312 318.24,-300 318.24,-300 318.24,-294 324.24,-288 330.24,-288 330.24,-288 398.74,-288 398.74,-288 404.74,-288 410.74,-294 410.74,-300 410.74,-300 410.74,-312 410.74,-312 410.74,-318 404.74,-324 398.74,-324"/>
<text text-anchor="middle" x="364.49" y="-303.5" font-family="sans" font-size="10.00">filtered_whitelist</text>
</g>
<!-- 10&#45;&gt;25 -->
<g id="edge67" class="edge"><title>10&#45;&gt;25</title>
<path fill="none" stroke="grey" stroke-width="2" d="M163.8,-367.365C197.35,-357.352 251.621,-341.13 308.206,-324.08"/>
<polygon fill="grey" stroke="grey" points="309.482,-327.351 318.046,-321.114 307.462,-320.649 309.482,-327.351"/>
</g>
<!-- 11 -->
<g id="node12" class="node"><title>11</title>
<path fill="none" stroke="#56d8a2" stroke-width="2" stroke-dasharray="5,2" d="M940.49,-252C940.49,-252 910.49,-252 910.49,-252 904.49,-252 898.49,-246 898.49,-240 898.49,-240 898.49,-228 898.49,-228 898.49,-222 904.49,-216 910.49,-216 910.49,-216 940.49,-216 940.49,-216 946.49,-216 952.49,-222 952.49,-228 952.49,-228 952.49,-240 952.49,-240 952.49,-246 946.49,-252 940.49,-252"/>
<text text-anchor="middle" x="925.49" y="-231.5" font-family="sans" font-size="10.00">alevin</text>
</g>
<!-- 11&#45;&gt;5 -->
<g id="edge12" class="edge"><title>11&#45;&gt;5</title>
<path fill="none" stroke="grey" stroke-width="2" d="M898.401,-220.949C893.81,-219.144 889.053,-217.416 884.49,-216 818.746,-195.592 740.861,-180.453 689.702,-171.693"/>
<polygon fill="grey" stroke="grey" points="690.281,-168.241 679.838,-170.026 689.115,-175.143 690.281,-168.241"/>
</g>
<!-- 11&#45;&gt;8 -->
<g id="edge22" class="edge"><title>11&#45;&gt;8</title>
<path fill="none" stroke="grey" stroke-width="2" d="M898.22,-226.284C883.066,-222.767 863.825,-218.651 846.49,-216 676.755,-190.04 627.824,-213.557 454.742,-179.751"/>
<polygon fill="grey" stroke="grey" points="455.282,-176.289 444.791,-177.771 453.916,-183.155 455.282,-176.289"/>
</g>
<!-- 11&#45;&gt;9 -->
<g id="edge31" class="edge"><title>11&#45;&gt;9</title>
<path fill="none" stroke="grey" stroke-width="2" d="M898.058,-220.418C893.592,-218.723 888.964,-217.168 884.49,-216 755.936,-182.425 715.947,-204.69 581.514,-180.017"/>
<polygon fill="grey" stroke="grey" points="582.145,-176.574 571.669,-178.157 580.846,-183.452 582.145,-176.574"/>
</g>
<!-- 12 -->
<g id="node13" class="node"><title>12</title>
<path fill="none" stroke="#567bd8" stroke-width="2" stroke-dasharray="5,2" d="M791.74,-252C791.74,-252 711.24,-252 711.24,-252 705.24,-252 699.24,-246 699.24,-240 699.24,-240 699.24,-228 699.24,-228 699.24,-222 705.24,-216 711.24,-216 711.24,-216 791.74,-216 791.74,-216 797.74,-216 803.74,-222 803.74,-228 803.74,-228 803.74,-240 803.74,-240 803.74,-246 797.74,-252 791.74,-252"/>
<text text-anchor="middle" x="751.49" y="-231.5" font-family="sans" font-size="10.00">alevin_10xwhitelist</text>
</g>
<!-- 12&#45;&gt;5 -->
<g id="edge13" class="edge"><title>12&#45;&gt;5</title>
<path fill="none" stroke="grey" stroke-width="2" d="M722.869,-215.876C707.571,-206.724 688.547,-195.342 672.072,-185.485"/>
<polygon fill="grey" stroke="grey" points="673.6,-182.32 663.222,-180.19 670.006,-188.327 673.6,-182.32"/>
</g>
<!-- 12&#45;&gt;8 -->
<g id="edge23" class="edge"><title>12&#45;&gt;8</title>
<path fill="none" stroke="grey" stroke-width="2" d="M699.164,-218.195C695.9,-217.414 692.656,-216.674 689.49,-216 589.273,-194.659 559.215,-203.362 454.835,-179.851"/>
<polygon fill="grey" stroke="grey" points="455.368,-176.382 444.838,-177.553 453.8,-183.204 455.368,-176.382"/>
</g>
<!-- 12&#45;&gt;9 -->
<g id="edge32" class="edge"><title>12&#45;&gt;9</title>
<path fill="none" stroke="grey" stroke-width="2" d="M698.976,-217.291C664.218,-206.893 618.417,-193.192 581.524,-182.155"/>
<polygon fill="grey" stroke="grey" points="582.444,-178.777 571.86,-179.265 580.438,-185.484 582.444,-178.777"/>
</g>
<!-- 13 -->
<g id="node14" class="node"><title>13</title>
<path fill="none" stroke="#d8b456" stroke-width="2" stroke-dasharray="5,2" d="M668.74,-252C668.74,-252 572.24,-252 572.24,-252 566.24,-252 560.24,-246 560.24,-240 560.24,-240 560.24,-228 560.24,-228 560.24,-222 566.24,-216 572.24,-216 572.24,-216 668.74,-216 668.74,-216 674.74,-216 680.74,-222 680.74,-228 680.74,-228 680.74,-240 680.74,-240 680.74,-246 674.74,-252 668.74,-252"/>
<text text-anchor="middle" x="620.49" y="-231.5" font-family="sans" font-size="10.00">alevin_filteredwhitelist</text>
</g>
<!-- 13&#45;&gt;5 -->
<g id="edge14" class="edge"><title>13&#45;&gt;5</title>
<path fill="none" stroke="grey" stroke-width="2" d="M623.951,-215.697C625.494,-207.983 627.348,-198.712 629.068,-190.112"/>
<polygon fill="grey" stroke="grey" points="632.54,-190.597 631.069,-180.104 625.676,-189.224 632.54,-190.597"/>
</g>
<!-- 13&#45;&gt;8 -->
<g id="edge24" class="edge"><title>13&#45;&gt;8</title>
<path fill="none" stroke="grey" stroke-width="2" d="M566.953,-215.966C532.92,-205.137 488.992,-191.16 454.808,-180.283"/>
<polygon fill="grey" stroke="grey" points="455.579,-176.855 444.989,-177.159 453.457,-183.526 455.579,-176.855"/>
</g>
<!-- 13&#45;&gt;9 -->
<g id="edge33" class="edge"><title>13&#45;&gt;9</title>
<path fill="none" stroke="grey" stroke-width="2" d="M595.294,-215.876C582.076,-206.893 565.698,-195.763 551.383,-186.034"/>
<polygon fill="grey" stroke="grey" points="553.022,-182.916 542.784,-180.19 549.087,-188.705 553.022,-182.916"/>
</g>
<!-- 14 -->
<g id="node15" class="node"><title>14</title>
<path fill="none" stroke="#d85656" stroke-width="2" stroke-dasharray="5,2" d="M383.49,-252C383.49,-252 353.49,-252 353.49,-252 347.49,-252 341.49,-246 341.49,-240 341.49,-240 341.49,-228 341.49,-228 341.49,-222 347.49,-216 353.49,-216 353.49,-216 383.49,-216 383.49,-216 389.49,-216 395.49,-222 395.49,-228 395.49,-228 395.49,-240 395.49,-240 395.49,-246 389.49,-252 383.49,-252"/>
<text text-anchor="middle" x="368.49" y="-231.5" font-family="sans" font-size="10.00">kb</text>
</g>
<!-- 14&#45;&gt;6 -->
<g id="edge16" class="edge"><title>14&#45;&gt;6</title>
<path fill="none" stroke="grey" stroke-width="2" d="M344.517,-215.876C331.94,-206.893 316.358,-195.763 302.738,-186.034"/>
<polygon fill="grey" stroke="grey" points="304.728,-183.154 294.556,-180.19 300.659,-188.85 304.728,-183.154"/>
</g>
<!-- 14&#45;&gt;8 -->
<g id="edge26" class="edge"><title>14&#45;&gt;8</title>
<path fill="none" stroke="grey" stroke-width="2" d="M376.4,-215.697C380.043,-207.728 384.445,-198.1 388.484,-189.264"/>
<polygon fill="grey" stroke="grey" points="391.697,-190.654 392.671,-180.104 385.33,-187.744 391.697,-190.654"/>
</g>
<!-- 14&#45;&gt;9 -->
<g id="edge35" class="edge"><title>14&#45;&gt;9</title>
<path fill="none" stroke="grey" stroke-width="2" d="M395.613,-220.183C398.608,-218.77 401.613,-217.354 404.49,-216 426.678,-205.558 451.331,-193.991 471.934,-184.334"/>
<polygon fill="grey" stroke="grey" points="473.523,-187.455 481.092,-180.042 470.552,-181.116 473.523,-187.455"/>
</g>
<!-- 15 -->
<g id="node16" class="node"><title>15</title>
<path fill="none" stroke="#b6d856" stroke-width="2" stroke-dasharray="5,2" d="M490.74,-252C490.74,-252 426.24,-252 426.24,-252 420.24,-252 414.24,-246 414.24,-240 414.24,-240 414.24,-228 414.24,-228 414.24,-222 420.24,-216 426.24,-216 426.24,-216 490.74,-216 490.74,-216 496.74,-216 502.74,-222 502.74,-228 502.74,-228 502.74,-240 502.74,-240 502.74,-246 496.74,-252 490.74,-252"/>
<text text-anchor="middle" x="458.49" y="-231.5" font-family="sans" font-size="10.00">kb_10xwhitelist</text>
</g>
<!-- 15&#45;&gt;6 -->
<g id="edge17" class="edge"><title>15&#45;&gt;6</title>
<path fill="none" stroke="grey" stroke-width="2" d="M413.937,-216.411C385.256,-205.732 347.989,-191.856 318.629,-180.924"/>
<polygon fill="grey" stroke="grey" points="319.592,-177.548 308.999,-177.338 317.149,-184.108 319.592,-177.548"/>
</g>
<!-- 15&#45;&gt;8 -->
<g id="edge27" class="edge"><title>15&#45;&gt;8</title>
<path fill="none" stroke="grey" stroke-width="2" d="M444.153,-215.697C437.2,-207.305 428.72,-197.07 421.09,-187.861"/>
<polygon fill="grey" stroke="grey" points="423.738,-185.571 414.662,-180.104 418.347,-190.038 423.738,-185.571"/>
</g>
<!-- 15&#45;&gt;9 -->
<g id="edge36" class="edge"><title>15&#45;&gt;9</title>
<path fill="none" stroke="grey" stroke-width="2" d="M473.074,-215.697C480.148,-207.305 488.774,-197.07 496.536,-187.861"/>
<polygon fill="grey" stroke="grey" points="499.305,-190.006 503.074,-180.104 493.953,-185.495 499.305,-190.006"/>
</g>
<!-- 16 -->
<g id="node17" class="node"><title>16</title>
<path fill="none" stroke="#d86656" stroke-width="2" stroke-dasharray="5,2" d="M273.49,-252C273.49,-252 193.49,-252 193.49,-252 187.49,-252 181.49,-246 181.49,-240 181.49,-240 181.49,-228 181.49,-228 181.49,-222 187.49,-216 193.49,-216 193.49,-216 273.49,-216 273.49,-216 279.49,-216 285.49,-222 285.49,-228 285.49,-228 285.49,-240 285.49,-240 285.49,-246 279.49,-252 273.49,-252"/>
<text text-anchor="middle" x="233.49" y="-231.5" font-family="sans" font-size="10.00">kb_filteredwhitelist</text>
</g>
<!-- 16&#45;&gt;6 -->
<g id="edge18" class="edge"><title>16&#45;&gt;6</title>
<path fill="none" stroke="grey" stroke-width="2" d="M242.636,-215.697C246.893,-207.644 252.046,-197.894 256.757,-188.982"/>
<polygon fill="grey" stroke="grey" points="259.87,-190.581 261.449,-180.104 253.682,-187.31 259.87,-190.581"/>
</g>
<!-- 16&#45;&gt;8 -->
<g id="edge28" class="edge"><title>16&#45;&gt;8</title>
<path fill="none" stroke="grey" stroke-width="2" d="M274.343,-215.876C297.274,-206.264 326.072,-194.193 350.36,-184.013"/>
<polygon fill="grey" stroke="grey" points="351.9,-187.162 359.77,-180.068 349.194,-180.706 351.9,-187.162"/>
</g>
<!-- 16&#45;&gt;9 -->
<g id="edge37" class="edge"><title>16&#45;&gt;9</title>
<path fill="none" stroke="grey" stroke-width="2" d="M285.581,-220.811C330.212,-210.281 396.172,-194.515 453.49,-180 453.591,-179.974 453.692,-179.949 453.793,-179.923"/>
<polygon fill="grey" stroke="grey" points="454.573,-183.337 463.391,-177.464 452.836,-176.556 454.573,-183.337"/>
</g>
<!-- 17 -->
<g id="node18" class="node"><title>17</title>
<path fill="none" stroke="#78d856" stroke-width="2" stroke-dasharray="5,2" d="M983.74,-324C983.74,-324 925.24,-324 925.24,-324 919.24,-324 913.24,-318 913.24,-312 913.24,-312 913.24,-300 913.24,-300 913.24,-294 919.24,-288 925.24,-288 925.24,-288 983.74,-288 983.74,-288 989.74,-288 995.74,-294 995.74,-300 995.74,-300 995.74,-312 995.74,-312 995.74,-318 989.74,-324 983.74,-324"/>
<text text-anchor="middle" x="954.49" y="-303.5" font-family="sans" font-size="10.00">salmon_index</text>
</g>
<!-- 17&#45;&gt;8 -->
<g id="edge21" class="edge"><title>17&#45;&gt;8</title>
<path fill="none" stroke="grey" stroke-width="2" d="M913.038,-288.836C892.075,-279.653 866.835,-266.993 846.49,-252 828.773,-238.944 832.239,-225.713 812.49,-216 671.936,-146.871 613.542,-209.498 454.896,-179.733"/>
<polygon fill="grey" stroke="grey" points="455.286,-176.242 444.797,-177.74 453.93,-183.11 455.286,-176.242"/>
</g>
<!-- 17&#45;&gt;9 -->
<g id="edge30" class="edge"><title>17&#45;&gt;9</title>
<path fill="none" stroke="grey" stroke-width="2" d="M933.357,-287.883C920.616,-277.536 904.082,-264.057 889.49,-252 870.276,-236.124 869.291,-226.067 846.49,-216 740.338,-169.133 699.67,-201.696 581.807,-180.056"/>
<polygon fill="grey" stroke="grey" points="582.163,-176.56 571.681,-178.099 580.835,-183.433 582.163,-176.56"/>
</g>
<!-- 17&#45;&gt;11 -->
<g id="edge42" class="edge"><title>17&#45;&gt;11</title>
<path fill="none" stroke="grey" stroke-width="2" d="M947.322,-287.697C944.056,-279.813 940.116,-270.304 936.488,-261.546"/>
<polygon fill="grey" stroke="grey" points="939.637,-260.003 932.576,-252.104 933.17,-262.683 939.637,-260.003"/>
</g>
<!-- 17&#45;&gt;12 -->
<g id="edge46" class="edge"><title>17&#45;&gt;12</title>
<path fill="none" stroke="grey" stroke-width="2" d="M912.92,-290.666C883.359,-280.472 843.232,-266.635 810.381,-255.307"/>
<polygon fill="grey" stroke="grey" points="811.477,-251.983 800.882,-252.032 809.195,-258.6 811.477,-251.983"/>
</g>
<!-- 17&#45;&gt;13 -->
<g id="edge51" class="edge"><title>17&#45;&gt;13</title>
<path fill="none" stroke="grey" stroke-width="2" d="M913.176,-290.632C909.916,-289.681 906.66,-288.79 903.49,-288 813.012,-265.455 785.735,-271.127 691.017,-252.221"/>
<polygon fill="grey" stroke="grey" points="691.511,-248.75 681.014,-250.184 690.114,-255.609 691.511,-248.75"/>
</g>
<!-- 18 -->
<g id="node19" class="node"><title>18</title>
<path fill="none" stroke="#56d88a" stroke-width="2" stroke-dasharray="5,2" d="M287.49,-324C287.49,-324 231.49,-324 231.49,-324 225.49,-324 219.49,-318 219.49,-312 219.49,-312 219.49,-300 219.49,-300 219.49,-294 225.49,-288 231.49,-288 231.49,-288 287.49,-288 287.49,-288 293.49,-288 299.49,-294 299.49,-300 299.49,-300 299.49,-312 299.49,-312 299.49,-318 293.49,-324 287.49,-324"/>
<text text-anchor="middle" x="259.49" y="-303.5" font-family="sans" font-size="10.00">kallisto_index</text>
</g>
<!-- 18&#45;&gt;8 -->
<g id="edge25" class="edge"><title>18&#45;&gt;8</title>
<path fill="none" stroke="grey" stroke-width="2" d="M271.657,-287.985C285.383,-269.341 308.886,-239.024 332.49,-216 343.268,-205.487 356.074,-195.054 367.651,-186.26"/>
<polygon fill="grey" stroke="grey" points="369.894,-188.953 375.817,-180.169 365.708,-183.342 369.894,-188.953"/>
</g>
<!-- 18&#45;&gt;9 -->
<g id="edge34" class="edge"><title>18&#45;&gt;9</title>
<path fill="none" stroke="grey" stroke-width="2" d="M299.711,-290.479C302.666,-289.587 305.615,-288.749 308.49,-288 397.163,-264.911 450.296,-320.201 511.49,-252 526.306,-235.488 526.419,-209.586 523.645,-189.974"/>
<polygon fill="grey" stroke="grey" points="527.091,-189.358 521.938,-180.101 520.193,-190.551 527.091,-189.358"/>
</g>
<!-- 18&#45;&gt;14 -->
<g id="edge55" class="edge"><title>18&#45;&gt;14</title>
<path fill="none" stroke="grey" stroke-width="2" d="M286.155,-287.876C300.274,-278.808 317.802,-267.552 333.051,-257.759"/>
<polygon fill="grey" stroke="grey" points="335.2,-260.538 341.723,-252.19 331.418,-254.648 335.2,-260.538"/>
</g>
<!-- 18&#45;&gt;15 -->
<g id="edge57" class="edge"><title>18&#45;&gt;15</title>
<path fill="none" stroke="grey" stroke-width="2" d="M299.761,-290.834C329.944,-280.217 371.56,-265.578 404.608,-253.954"/>
<polygon fill="grey" stroke="grey" points="405.853,-257.226 414.125,-250.606 403.53,-250.623 405.853,-257.226"/>
</g>
<!-- 18&#45;&gt;16 -->
<g id="edge60" class="edge"><title>18&#45;&gt;16</title>
<path fill="none" stroke="grey" stroke-width="2" d="M253.063,-287.697C250.135,-279.813 246.603,-270.304 243.35,-261.546"/>
<polygon fill="grey" stroke="grey" points="246.606,-260.26 239.843,-252.104 240.044,-262.697 246.606,-260.26"/>
</g>
<!-- 19 -->
<g id="node20" class="node"><title>19</title>
<path fill="none" stroke="#56b1d8" stroke-width="2" stroke-dasharray="5,2" d="M344.74,-468C344.74,-468 272.24,-468 272.24,-468 266.24,-468 260.24,-462 260.24,-456 260.24,-456 260.24,-444 260.24,-444 260.24,-438 266.24,-432 272.24,-432 272.24,-432 344.74,-432 344.74,-432 350.74,-432 356.74,-438 356.74,-444 356.74,-444 356.74,-456 356.74,-456 356.74,-462 350.74,-468 344.74,-468"/>
<text text-anchor="middle" x="308.49" y="-447.5" font-family="sans" font-size="10.00">install_cellranger</text>
</g>
<!-- 19&#45;&gt;10 -->
<g id="edge38" class="edge"><title>19&#45;&gt;10</title>
<path fill="none" stroke="grey" stroke-width="2" d="M265.191,-431.876C237.085,-420.761 200.665,-406.357 172.935,-395.391"/>
<polygon fill="grey" stroke="grey" points="174.103,-392.089 163.517,-391.666 171.529,-398.598 174.103,-392.089"/>
</g>
<!-- 24 -->
<g id="node25" class="node"><title>24</title>
<path fill="none" stroke="#568ad8" stroke-width="2" stroke-dasharray="5,2" d="M569.49,-324C569.49,-324 517.49,-324 517.49,-324 511.49,-324 505.49,-318 505.49,-312 505.49,-312 505.49,-300 505.49,-300 505.49,-294 511.49,-288 517.49,-288 517.49,-288 569.49,-288 569.49,-288 575.49,-288 581.49,-294 581.49,-300 581.49,-300 581.49,-312 581.49,-312 581.49,-318 575.49,-324 569.49,-324"/>
<text text-anchor="middle" x="543.49" y="-303.5" font-family="sans" font-size="10.00">tenxwhitelist</text>
</g>
<!-- 19&#45;&gt;24 -->
<g id="edge66" class="edge"><title>19&#45;&gt;24</title>
<path fill="none" stroke="grey" stroke-width="2" d="M336.837,-431.871C379.27,-406.231 459.335,-357.851 506.378,-329.425"/>
<polygon fill="grey" stroke="grey" points="508.294,-332.357 515.043,-324.189 504.674,-326.365 508.294,-332.357"/>
</g>
<!-- 20 -->
<g id="node21" class="node"><title>20</title>
<path fill="none" stroke="#56d87b" stroke-width="2" stroke-dasharray="5,2" d="M172.74,-468C172.74,-468 90.2401,-468 90.2401,-468 84.2401,-468 78.2401,-462 78.2401,-456 78.2401,-456 78.2401,-444 78.2401,-444 78.2401,-438 84.2401,-432 90.2401,-432 90.2401,-432 172.74,-432 172.74,-432 178.74,-432 184.74,-438 184.74,-444 184.74,-444 184.74,-456 184.74,-456 184.74,-462 178.74,-468 172.74,-468"/>
<text text-anchor="middle" x="131.49" y="-447.5" font-family="sans" font-size="10.00">download_genome</text>
</g>
<!-- 20&#45;&gt;10 -->
<g id="edge39" class="edge"><title>20&#45;&gt;10</title>
<path fill="none" stroke="grey" stroke-width="2" d="M131.49,-431.697C131.49,-423.983 131.49,-414.712 131.49,-406.112"/>
<polygon fill="grey" stroke="grey" points="134.99,-406.104 131.49,-396.104 127.99,-406.104 134.99,-406.104"/>
</g>
<!-- 21 -->
<g id="node22" class="node"><title>21</title>
<path fill="none" stroke="#d8c356" stroke-width="2" stroke-dasharray="5,2" d="M510.74,-468C510.74,-468 444.24,-468 444.24,-468 438.24,-468 432.24,-462 432.24,-456 432.24,-456 432.24,-444 432.24,-444 432.24,-438 438.24,-432 444.24,-432 444.24,-432 510.74,-432 510.74,-432 516.74,-432 522.74,-438 522.74,-444 522.74,-444 522.74,-456 522.74,-456 522.74,-462 516.74,-468 510.74,-468"/>
<text text-anchor="middle" x="477.49" y="-447.5" font-family="sans" font-size="10.00">download_fastq</text>
</g>
<!-- 21&#45;&gt;10 -->
<g id="edge40" class="edge"><title>21&#45;&gt;10</title>
<path fill="none" stroke="grey" stroke-width="2" d="M431.959,-441.982C360.354,-430.771 224.713,-408.787 177.49,-396 176.078,-395.618 174.647,-395.21 173.208,-394.782"/>
<polygon fill="grey" stroke="grey" points="174.265,-391.445 163.673,-391.72 172.124,-398.11 174.265,-391.445"/>
</g>
<!-- 21&#45;&gt;11 -->
<g id="edge43" class="edge"><title>21&#45;&gt;11</title>
<path fill="none" stroke="grey" stroke-width="2" d="M523.138,-448.068C649.461,-445.02 996.599,-433.295 1030.49,-396 1043.53,-381.648 1036.3,-308.598 1022.49,-288 1008.56,-267.223 983.664,-253.864 962.584,-245.754"/>
<polygon fill="grey" stroke="grey" points="963.508,-242.368 952.914,-242.288 961.146,-248.957 963.508,-242.368"/>
</g>
<!-- 21&#45;&gt;12 -->
<g id="edge47" class="edge"><title>21&#45;&gt;12</title>
<path fill="none" stroke="grey" stroke-width="2" d="M507.687,-431.954C524.525,-422.066 545.637,-409.023 563.49,-396 624.652,-351.383 690.669,-291.926 725.893,-259.185"/>
<polygon fill="grey" stroke="grey" points="728.419,-261.615 733.341,-252.233 723.642,-256.498 728.419,-261.615"/>
</g>
<!-- 21&#45;&gt;13 -->
<g id="edge52" class="edge"><title>21&#45;&gt;13</title>
<path fill="none" stroke="grey" stroke-width="2" d="M497.353,-431.871C522.293,-409.399 564.902,-367.665 590.49,-324 601.845,-304.624 609.666,-280.334 614.468,-262.027"/>
<polygon fill="grey" stroke="grey" points="617.875,-262.831 616.89,-252.282 611.081,-261.143 617.875,-262.831"/>
</g>
<!-- 21&#45;&gt;14 -->
<g id="edge56" class="edge"><title>21&#45;&gt;14</title>
<path fill="none" stroke="grey" stroke-width="2" d="M473.853,-431.975C466.8,-401.408 449.282,-335.947 419.49,-288 413.027,-277.598 404.248,-267.551 395.796,-259.053"/>
<polygon fill="grey" stroke="grey" points="398.141,-256.451 388.52,-252.014 393.274,-261.483 398.141,-256.451"/>
</g>
<!-- 21&#45;&gt;15 -->
<g id="edge58" class="edge"><title>21&#45;&gt;15</title>
<path fill="none" stroke="grey" stroke-width="2" d="M475.967,-431.849C472.681,-394.832 464.899,-307.181 460.922,-262.386"/>
<polygon fill="grey" stroke="grey" points="464.391,-261.884 460.02,-252.232 457.418,-262.503 464.391,-261.884"/>
</g>
<!-- 21&#45;&gt;16 -->
<g id="edge61" class="edge"><title>21&#45;&gt;16</title>
<path fill="none" stroke="grey" stroke-width="2" d="M432.079,-441.081C359.991,-428.313 226.718,-403.816 219.49,-396 186.79,-360.635 200.698,-335.161 210.49,-288 212.366,-278.965 215.864,-269.579 219.576,-261.261"/>
<polygon fill="grey" stroke="grey" points="222.812,-262.606 223.948,-252.072 216.491,-259.598 222.812,-262.606"/>
</g>
<!-- 22 -->
<g id="node23" class="node"><title>22</title>
<path fill="none" stroke="#d87d56" stroke-width="2" stroke-dasharray="5,2" d="M802.74,-396C802.74,-396 750.24,-396 750.24,-396 744.24,-396 738.24,-390 738.24,-384 738.24,-384 738.24,-372 738.24,-372 738.24,-366 744.24,-360 750.24,-360 750.24,-360 802.74,-360 802.74,-360 808.74,-360 814.74,-366 814.74,-372 814.74,-372 814.74,-384 814.74,-384 814.74,-390 808.74,-396 802.74,-396"/>
<text text-anchor="middle" x="776.49" y="-375.5" font-family="sans" font-size="10.00">install_alevin</text>
</g>
<!-- 22&#45;&gt;11 -->
<g id="edge41" class="edge"><title>22&#45;&gt;11</title>
<path fill="none" stroke="grey" stroke-width="2" d="M815.174,-370.683C877.084,-360.185 992.706,-338.838 1004.49,-324 1014.44,-311.471 1012.02,-302.118 1004.49,-288 995.395,-270.945 978.105,-258.407 962.014,-249.821"/>
<polygon fill="grey" stroke="grey" points="963.262,-246.533 952.75,-245.217 960.148,-252.801 963.262,-246.533"/>
</g>
<!-- 22&#45;&gt;12 -->
<g id="edge45" class="edge"><title>22&#45;&gt;12</title>
<path fill="none" stroke="grey" stroke-width="2" d="M761.735,-359.634C754.4,-349.849 746.304,-337.008 742.49,-324 736.537,-303.694 739.47,-279.79 743.517,-261.872"/>
<polygon fill="grey" stroke="grey" points="746.934,-262.636 745.97,-252.085 740.144,-260.934 746.934,-262.636"/>
</g>
<!-- 22&#45;&gt;13 -->
<g id="edge50" class="edge"><title>22&#45;&gt;13</title>
<path fill="none" stroke="grey" stroke-width="2" d="M757.673,-359.871C730.031,-334.711 678.335,-287.654 646.902,-259.042"/>
<polygon fill="grey" stroke="grey" points="649.125,-256.332 639.374,-252.189 644.413,-261.509 649.125,-256.332"/>
</g>
<!-- 22&#45;&gt;17 -->
<g id="edge63" class="edge"><title>22&#45;&gt;17</title>
<path fill="none" stroke="grey" stroke-width="2" d="M815.113,-361.811C840.998,-351.632 875.359,-338.119 903.487,-327.058"/>
<polygon fill="grey" stroke="grey" points="905.126,-330.174 913.152,-323.257 902.565,-323.659 905.126,-330.174"/>
</g>
<!-- 23 -->
<g id="node24" class="node"><title>23</title>
<path fill="none" stroke="#9fd856" stroke-width="2" stroke-dasharray="5,2" d="M882.74,-324C882.74,-324 764.24,-324 764.24,-324 758.24,-324 752.24,-318 752.24,-312 752.24,-312 752.24,-300 752.24,-300 752.24,-294 758.24,-288 764.24,-288 764.24,-288 882.74,-288 882.74,-288 888.74,-288 894.74,-294 894.74,-300 894.74,-300 894.74,-312 894.74,-312 894.74,-318 888.74,-324 882.74,-324"/>
<text text-anchor="middle" x="823.49" y="-303.5" font-family="sans" font-size="10.00">download_geneannotation</text>
</g>
<!-- 23&#45;&gt;11 -->
<g id="edge44" class="edge"><title>23&#45;&gt;11</title>
<path fill="none" stroke="grey" stroke-width="2" d="M848.442,-287.876C861.532,-278.893 877.75,-267.763 891.926,-258.034"/>
<polygon fill="grey" stroke="grey" points="894.178,-260.734 900.442,-252.19 890.217,-254.962 894.178,-260.734"/>
</g>
<!-- 23&#45;&gt;12 -->
<g id="edge48" class="edge"><title>23&#45;&gt;12</title>
<path fill="none" stroke="grey" stroke-width="2" d="M805.692,-287.697C796.886,-279.135 786.108,-268.656 776.489,-259.304"/>
<polygon fill="grey" stroke="grey" points="778.693,-256.566 769.083,-252.104 773.813,-261.585 778.693,-256.566"/>
</g>
<!-- 23&#45;&gt;13 -->
<g id="edge53" class="edge"><title>23&#45;&gt;13</title>
<path fill="none" stroke="grey" stroke-width="2" d="M774.09,-287.966C745.603,-278.142 709.604,-265.729 679.619,-255.389"/>
<polygon fill="grey" stroke="grey" points="680.706,-252.062 670.111,-252.111 678.424,-258.68 680.706,-252.062"/>
</g>
<!-- 24&#45;&gt;12 -->
<g id="edge49" class="edge"><title>24&#45;&gt;12</title>
<path fill="none" stroke="grey" stroke-width="2" d="M581.641,-292.161C612.193,-281.879 655.626,-267.262 690.923,-255.383"/>
<polygon fill="grey" stroke="grey" points="692.284,-258.618 700.645,-252.111 690.051,-251.984 692.284,-258.618"/>
</g>
<!-- 24&#45;&gt;15 -->
<g id="edge59" class="edge"><title>24&#45;&gt;15</title>
<path fill="none" stroke="grey" stroke-width="2" d="M522.479,-287.697C511.774,-278.881 498.6,-268.032 486.995,-258.474"/>
<polygon fill="grey" stroke="grey" points="489.204,-255.76 479.26,-252.104 484.754,-261.163 489.204,-255.76"/>
</g>
<!-- 25&#45;&gt;13 -->
<g id="edge54" class="edge"><title>25&#45;&gt;13</title>
<path fill="none" stroke="grey" stroke-width="2" d="M410.85,-292.324C449.697,-281.701 505.762,-266.371 550.141,-254.236"/>
<polygon fill="grey" stroke="grey" points="551.274,-257.555 559.997,-251.541 549.427,-250.803 551.274,-257.555"/>
</g>
<!-- 25&#45;&gt;16 -->
<g id="edge62" class="edge"><title>25&#45;&gt;16</title>
<path fill="none" stroke="grey" stroke-width="2" d="M332.444,-287.876C314.999,-278.554 293.225,-266.919 274.547,-256.939"/>
<polygon fill="grey" stroke="grey" points="276.129,-253.816 265.66,-252.19 272.83,-259.99 276.129,-253.816"/>
</g>
<!-- 26 -->
<g id="node27" class="node"><title>26</title>
<path fill="none" stroke="#56d8c9" stroke-width="2" stroke-dasharray="5,2" d="M1009.49,-396C1009.49,-396 899.49,-396 899.49,-396 893.49,-396 887.49,-390 887.49,-384 887.49,-384 887.49,-372 887.49,-372 887.49,-366 893.49,-360 899.49,-360 899.49,-360 1009.49,-360 1009.49,-360 1015.49,-360 1021.49,-366 1021.49,-372 1021.49,-372 1021.49,-384 1021.49,-384 1021.49,-390 1015.49,-396 1009.49,-396"/>
<text text-anchor="middle" x="954.49" y="-375.5" font-family="sans" font-size="10.00">download_transcriptome</text>
</g>
<!-- 26&#45;&gt;17 -->
<g id="edge64" class="edge"><title>26&#45;&gt;17</title>
<path fill="none" stroke="grey" stroke-width="2" d="M954.49,-359.697C954.49,-351.983 954.49,-342.712 954.49,-334.112"/>
<polygon fill="grey" stroke="grey" points="957.99,-334.104 954.49,-324.104 950.99,-334.104 957.99,-334.104"/>
</g>
<!-- 27 -->
<g id="node28" class="node"><title>27</title>
<path fill="none" stroke="#8fd856" stroke-width="2" stroke-dasharray="5,2" d="M277.74,-396C277.74,-396 241.24,-396 241.24,-396 235.24,-396 229.24,-390 229.24,-384 229.24,-384 229.24,-372 229.24,-372 229.24,-366 235.24,-360 241.24,-360 241.24,-360 277.74,-360 277.74,-360 283.74,-360 289.74,-366 289.74,-372 289.74,-372 289.74,-384 289.74,-384 289.74,-390 283.74,-396 277.74,-396"/>
<text text-anchor="middle" x="259.49" y="-375.5" font-family="sans" font-size="10.00">install_kb</text>
</g>
<!-- 27&#45;&gt;18 -->
<g id="edge65" class="edge"><title>27&#45;&gt;18</title>
<path fill="none" stroke="grey" stroke-width="2" d="M259.49,-359.697C259.49,-351.983 259.49,-342.712 259.49,-334.112"/>
<polygon fill="grey" stroke="grey" points="262.99,-334.104 259.49,-324.104 255.99,-334.104 262.99,-334.104"/>
</g>
</g>
</svg>
